<svg xmlns="http://www.w3.org/2000/svg" viewBox="-2 -2 20 20" width="500" height="500">
  <defs>
    <style>
      .read-body {
        transform-origin: 7.5px 15px;
        animation: read-sway 5s infinite ease-in-out;
      }
      .read-shadow {
        animation: read-shadow 5s infinite ease-in-out;
      }
      .read-eyes {
        transform-origin: 7.5px 9px;
        animation: read-scan 3s infinite ease-in-out;
      }
      .page-flip {
        animation: flip-page 4s infinite ease-in-out;
      }
      @keyframes read-sway {
        0%, 100% { transform: rotate(0deg); }
        50% { transform: rotate(-2deg); }
      }
      @keyframes read-shadow {
        0%, 100% { opacity: 0.5; }
        50% { opacity: 0.45; }
      }
      @keyframes read-scan {
        0%, 100% { transform: translateX(0); }
        25% { transform: translateX(1px); }
        75% { transform: translateX(-1px); }
      }
      @keyframes flip-page {
        0%, 85%, 100% { transform: scaleX(1); }
        90% { transform: scaleX(-0.5); }
        95% { transform: scaleX(1); }
      }
    </style>
  </defs>
  <rect class="read-shadow" x="3" y="15" width="9" height="1" fill="#000" opacity="0.5"/>
  <g class="read-body">
    <g fill="#DE886D">
      <rect x="3" y="13" width="1" height="2"/>
      <rect x="5" y="13" width="1" height="2"/>
      <rect x="9" y="13" width="1" height="2"/>
      <rect x="11" y="13" width="1" height="2"/>
      <rect x="2" y="6" width="11" height="7"/>
      <rect x="0" y="10" width="2" height="2"/>
      <rect x="13" y="10" width="2" height="2"/>
    </g>
    <!-- Book -->
    <g>
      <rect x="1" y="11" width="5" height="4" fill="#FFFFFF"/>
      <rect x="9" y="11" width="5" height="4" fill="#FFFFFF"/>
      <rect x="6" y="11" width="3" height="4" fill="#DDD"/>
      <!-- Text lines on book -->
      <rect x="2" y="12" width="3" height="0.5" fill="#666"/>
      <rect x="2" y="13" width="2.5" height="0.5" fill="#666"/>
      <g class="page-flip">
        <rect x="10" y="12" width="3" height="0.5" fill="#666"/>
        <rect x="10" y="13" width="2.5" height="0.5" fill="#666"/>
      </g>
    </g>
    <!-- Focused eyes (looking down at book) -->
    <g class="read-eyes" fill="#000">
      <rect x="4" y="9" width="1" height="2"/>
      <rect x="10" y="9" width="1" height="2"/>
    </g>
  </g>
</svg>
